# xmcd
#
# Track frame offsets:
#	150
#	20935
#	39482
#	60466
#	76947
#	102472
#	121862
#
# Disc length: 1956 seconds
# Revision: 3
# Processed by: cddbd v1.5.2PL0 Copyright (c) Steve Scherf et al.
# Submitted via: dBpowerAMP V12.0
#
DISCID=5407a207
DTITLE=Blues - the perfect blues collection 25 original albums (Sony 88697847832) - CD09 Sonny Boy Williamson 1964 Sonny Boy Williamson and Memphis Slim
DYEAR=2011
DGENRE=Blues
TTITLE0=The Skies Are Crying
TTITLE1=Your Funeral And My Trial
TTITLE2=Explain Yourself To Me
TTITLE3=Nine Below Zero
TTITLE4=Fattening Frogs For Snakes
TTITLE5=My One Room Cabin
TTITLE6=Getting Out Of Town
EXTD=
EXTT0=
EXTT1=
EXTT2=
EXTT3=
EXTT4=
EXTT5=
EXTT6=
PLAYORDER=
